<svg xmlns="http://www.w3.org/2000/svg" viewBox="0 0 64 64" role="img" aria-label="Solar icon">
  <defs>
    <linearGradient id="sky" x1="0" y1="0" x2="0" y2="1">
      <stop offset="0%" stop-color="#0F172A"/>
      <stop offset="100%" stop-color="#1E293B"/>
    </linearGradient>
    <linearGradient id="sun" x1="0" y1="0" x2="1" y2="1">
      <stop offset="0%" stop-color="#FDE047"/>
      <stop offset="100%" stop-color="#F59E0B"/>
    </linearGradient>
    <linearGradient id="panel" x1="0" y1="0" x2="1" y2="1">
      <stop offset="0%" stop-color="#38BDF8"/>
      <stop offset="100%" stop-color="#2563EB"/>
    </linearGradient>
  </defs>
  <rect width="64" height="64" rx="14" fill="url(#sky)"/>
  <circle cx="21" cy="20" r="10" fill="url(#sun)"/>
  <g stroke="#FDE68A" stroke-width="2" stroke-linecap="round" opacity="0.9">
    <line x1="21" y1="5" x2="21" y2="1"/>
    <line x1="21" y1="39" x2="21" y2="35"/>
    <line x1="6" y1="20" x2="2" y2="20"/>
    <line x1="40" y1="20" x2="44" y2="20"/>
    <line x1="10" y1="9" x2="7" y2="6"/>
    <line x1="32" y1="31" x2="35" y2="34"/>
    <line x1="10" y1="31" x2="7" y2="34"/>
    <line x1="32" y1="9" x2="35" y2="6"/>
  </g>
  <g transform="translate(13 30)">
    <polygon points="0,10 38,0 38,18 0,28" fill="url(#panel)" stroke="#93C5FD" stroke-width="1.5"/>
    <g stroke="#BFDBFE" stroke-width="1" opacity="0.8">
      <line x1="8" y1="8" x2="8" y2="24"/>
      <line x1="18" y1="5" x2="18" y2="21"/>
      <line x1="28" y1="2" x2="28" y2="18"/>
      <line x1="2" y1="16" x2="35" y2="7"/>
      <line x1="2" y1="22" x2="35" y2="13"/>
    </g>
  </g>
</svg>
